HIERARCHY
ROOT root
{
	OFFSET	0	13.1	24.9
	CHANNELS 6  Xposition Yposition Zposition Xrotation Yrotation Zrotation
	JOINT spine_1
	{
		OFFSET	0	9.99999	0
		CHANNELS 3  Xrotation Yrotation Zrotation
		JOINT spine_2
		{
			OFFSET	0	112	-10
			CHANNELS 3  Xrotation Yrotation Zrotation
			JOINT spine_3
			{
				OFFSET	0	206.5	19.3
				CHANNELS 3  Xrotation Yrotation Zrotation
				JOINT spine_4
				{
					OFFSET	0	110.4	14.6
					CHANNELS 3  Xrotation Yrotation Zrotation
					JOINT neck_1
					{
						OFFSET	0	71.8	-50.3
						CHANNELS 3  Xrotation Yrotation Zrotation
						JOINT neck_2
						{
							OFFSET	0	86.2	-25.8
							CHANNELS 3  Xrotation Yrotation Zrotation
							JOINT head_ee
							{
								OFFSET	0	179.8	-8.7
								CHANNELS 3  Xrotation Yrotation Zrotation
								End Site
								{
									OFFSET	1	0	0
								}
							}
						}
					}
					JOINT left_clavicle
					{
						OFFSET	-43.2	22.4	-70.8
						CHANNELS 3  Xrotation Yrotation Zrotation
						JOINT left_shoulder
						{
							OFFSET	-93.9	-5.79999	48.7
							CHANNELS 3  Xrotation Yrotation Zrotation
							JOINT left_elbow
							{
								OFFSET	-291.4	-30.8	15.2
								CHANNELS 3  Xrotation Yrotation Zrotation
								JOINT left_lowarm_twist
								{
									OFFSET	-110.7	-3.89999	13.6
									CHANNELS 3  Xrotation Yrotation Zrotation
									JOINT left_hand
									{
										OFFSET	-110.7	-3.89999	13.6
										CHANNELS 3  Xrotation Yrotation Zrotation
										JOINT left_ee
										{
											OFFSET	-80.8	-5.10001	12.1
											CHANNELS 3  Xrotation Yrotation Zrotation
											End Site
											{
												OFFSET	1	0	0
											}
										}
									}
								}
							}
						}
					}
					JOINT right_clavicle
					{
						OFFSET	43.2	22.4	-70.8
						CHANNELS 3  Xrotation Yrotation Zrotation
						JOINT right_shoulder
						{
							OFFSET	93.9	-5.79999	48.7
							CHANNELS 3  Xrotation Yrotation Zrotation
							JOINT right_elbow
							{
								OFFSET	291.4	-30.8	15.2
								CHANNELS 3  Xrotation Yrotation Zrotation
								JOINT right_lowarm_twist
								{
									OFFSET	110.7	-3.89999	13.6
									CHANNELS 3  Xrotation Yrotation Zrotation
									JOINT right_hand
									{
										OFFSET	110.7	-3.89999	13.6
										CHANNELS 3  Xrotation Yrotation Zrotation
										JOINT right_ee
										{
											OFFSET	80.8	-5.10001	12.1
											CHANNELS 3  Xrotation Yrotation Zrotation
											End Site
											{
												OFFSET	1	0	0
											}
										}
									}
								}
							}
						}
					}
				}
			}
		}
	}
	JOINT left_hip
	{
		OFFSET	-82.8	-127.5	0.300001
		CHANNELS 3  Xrotation Yrotation Zrotation
		JOINT left_knee
		{
			OFFSET	-28.2	-396.7	2.2
			CHANNELS 3  Xrotation Yrotation Zrotation
			JOINT left_ankle
			{
				OFFSET	-11.7	-411.3	35.4
				CHANNELS 3  Xrotation Yrotation Zrotation
				JOINT left_toes
				{
					OFFSET	0	-60	-88.6
					CHANNELS 3  Xrotation Yrotation Zrotation
					JOINT left_foot_ee
					{
						OFFSET	-22.5	-16.5	-42.2
						CHANNELS 3  Xrotation Yrotation Zrotation
						End Site
						{
							OFFSET	1	0	0
						}
					}
				}
			}
		}
	}
	JOINT right_hip
	{
		OFFSET	82.8	-127.5	0.300001
		CHANNELS 3  Xrotation Yrotation Zrotation
		JOINT right_knee
		{
			OFFSET	28.2	-396.7	2.2
			CHANNELS 3  Xrotation Yrotation Zrotation
			JOINT right_ankle
			{
				OFFSET	11.7	-411.3	35.4
				CHANNELS 3  Xrotation Yrotation Zrotation
				JOINT right_toes
				{
					OFFSET	0	-60	-88.6
					CHANNELS 3  Xrotation Yrotation Zrotation
					JOINT right_foot_ee
					{
						OFFSET	22.5	-16.5	-42.2
						CHANNELS 3  Xrotation Yrotation Zrotation
						End Site
						{
							OFFSET	1	0	0
						}
					}
				}
			}
		}
	}
}
MOTION
Frames: 7
Frame Time: 0.02
1104.28127746 765.111 -1519.9241244 175.02032506 82.1030160372 -175.820673145 -2.12701 0.29187 0.245303 -2.12702 0.275669 0.263378 -2.1257 0.202312 0.323159 -2.12575 0.25081 0.287152 -2.1457 -2.15189 -11.88 -1.70355 5.55456 -12.8082 -0.0 0.0 -0.0 2.61882 24.8933 6.35089 -4.83392 -21.2144 69.5696 0.246517 -6.96249 0.0149966 -12.4487 -0.601032 1.4707 1.77873 20.0648 19.0344 -0.0 0.0 -0.0 10.7816 -0.750261 -21.2318 18.0728 15.0742 -63.654 1.18666 30.4475 -0.322947 20.976 -0.256141 2.65232 0.509635 -11.2513 -7.90964 0.0 0.0 0.0 27.1395 -19.3605 0.836089 -65.8755 -2.8667 9.13948 -17.1538 22.4929 2.65152 39.3529 -0.0 -0.0 -0.0 0.0 -0.0 18.0576 7.09024 -4.17313 -34.6965 0.164281 -5.24178 36.5183 -18.2956 4.66028 16.1055 -0.0 -0.0 0.0 0.0 0.0 
1086.86816507 766.11 -1517.0434549 170.334989488 79.6457754708 -171.15029556 -2.16122 0.221814 0.266395 -2.16121 0.204413 0.27997 -2.16014 0.12897 0.321767 -2.16024 0.178168 0.297361 -4.17431 -1.56104 -12.4751 -3.69112 6.71512 -13.1283 -0.0 0.0 -0.0 2.29786 25.0856 5.93001 -5.61612 -21.2706 68.9632 0.205361 -5.80885 0.0104191 -12.9264 -0.630376 1.52432 1.51839 22.0396 17.9862 -0.0 0.0 -0.0 10.6873 -0.413998 -21.0571 19.3298 15.2482 -63.0314 1.2406 31.5718 -0.350738 20.5637 -0.260518 2.59984 0.527756 -11.3373 -8.05917 0.0 0.0 0.0 29.3069 -18.1361 0.118604 -61.7592 -2.39291 8.71635 -15.7198 22.6631 2.4292 39.9837 -0.0 -0.0 -0.0 0.0 -0.0 14.2912 6.46792 -3.97173 -33.4414 0.103056 -5.05895 36.3895 -13.4331 4.57584 15.8899 -0.0 -0.0 0.0 0.0 0.0 
1073.4857201 769.003 -1516.2167521 172.71832959 76.544486997 -173.716569548 -2.04667 0.0478775 0.255746 -2.04663 0.0315067 0.258275 -2.04645 -0.0327188 0.258124 -2.04654 0.00845756 0.260052 -5.80608 -1.3248 -11.496 -5.40795 6.09772 -11.9089 -0.0 0.0 -0.0 1.95132 24.1545 5.42352 -6.67312 -20.7898 69.0018 0.176915 -5.00865 0.00773767 -13.5838 -0.671493 1.59772 1.47479 27.3718 19.2165 -0.0 0.0 -0.0 10.9377 1.06694 -21.6709 19.9469 15.4729 -62.5205 1.32494 33.2768 -0.395965 20.5203 -0.260957 2.59431 0.698299 -8.84443 -8.20222 0.0 0.0 0.0 30.9541 -18.6007 0.906492 -59.0157 -2.09464 8.41611 -12.7547 24.8157 1.98571 40.1419 -0.0 -0.0 -0.0 0.0 -0.0 12.8317 7.95551 -4.67953 -30.7615 -0.0141465 -4.66447 36.2429 -11.7406 4.5449 15.1572 -0.0 -0.0 0.0 0.0 0.0 
1060.58963308 774.609 -1504.41277798 173.35768538 73.0629779311 -174.350785683 -2.05869 0.0681482 0.347946 -2.05863 0.0458695 0.351578 -2.05827 -0.0417212 0.352094 -2.05844 0.0144087 0.354264 -7.2563 -1.26733 -12.2797 -6.81288 6.50843 -12.5578 -0.0 0.0 -0.0 1.82651 24.0611 5.24952 -7.17866 -20.6359 68.6873 0.191173 -5.41001 0.00903226 -13.7005 -0.678882 1.61071 1.26112 28.0415 18.1485 -0.0 0.0 -0.0 11.0509 1.43293 -21.9313 21.0816 15.4554 -62.1481 1.34746 33.721 -0.408391 20.3876 -0.262272 2.57742 0.724165 -8.62699 -8.28688 0.0 0.0 0.0 32.6134 -18.1137 1.34437 -56.1206 -1.79596 8.08436 -11.6364 23.537 1.79829 39.9086 -0.0 -0.0 -0.0 0.0 -0.0 11.6613 5.65025 -4.55508 -30.2532 -0.0342833 -4.58907 35.8827 -10.3883 4.4998 14.4674 -0.0 -0.0 0.0 0.0 0.0 
1052.47776427 775.394 -1500.96380416 175.459803007 71.1099668554 -176.242442029 -1.86509 0.0119897 0.391015 -1.865 -0.0129157 0.390985 -1.86502 -0.107106 0.376251 -1.86521 -0.0463409 0.388444 -7.95278 -0.595057 -11.6016 -7.55979 7.13556 -11.6758 -0.0 0.0 -0.0 1.64782 23.8087 4.99216 -7.9006 -20.4979 68.7541 0.175435 -4.96696 0.00760896 -14.1392 -0.706888 1.65937 1.23913 29.4522 18.4018 -0.0 0.0 -0.0 11.0457 1.4306 -21.9201 22.1077 14.5208 -61.015 1.48483 36.3336 -0.487257 20.2953 -0.263164 2.56566 0.757996 -7.61243 -8.11465 0.0 0.0 0.0 33.1552 -17.8432 1.58055 -53.9884 -1.58698 7.83074 -9.77568 22.9661 1.50343 40.1147 -0.0 -0.0 -0.0 0.0 -0.0 10.7132 5.44164 -4.72764 -27.7432 -0.123867 -4.21431 33.8428 -9.83717 4.29578 13.1077 -0.0 -0.0 0.0 0.0 0.0 
1036.68884279 774.119 -1494.79147746 174.683931802 69.2278588654 -175.455346144 -1.84402 -0.0384984 0.220974 -1.84399 -0.0524815 0.218076 -1.84418 -0.1036 0.198944 -1.84423 -0.0708806 0.212809 -8.23518 -0.622828 -10.4109 -7.92126 6.18555 -10.465 -0.0 0.0 -0.0 1.67935 23.7943 5.03427 -9.66264 -20.1585 68.1562 0.173753 -4.91958 0.00746403 -14.8748 -0.754683 1.74048 1.2479 29.7517 18.5307 -0.0 0.0 -0.0 11.0046 1.32277 -21.8269 22.7785 14.1358 -60.3441 1.60013 38.3994 -0.557245 19.6382 -0.268965 2.48192 0.768384 -6.50772 -7.75128 0.0 0.0 0.0 35.1778 -17.5726 0.736916 -51.3225 -1.33929 7.50314 -8.51014 22.4663 1.30371 38.3775 -0.0 -0.0 -0.0 0.0 -0.0 8.49565 6.46997 -5.0272 -26.1639 -0.17178 -3.97667 36.1468 -7.3426 4.5109 12.2919 -0.0 -0.0 0.0 0.0 0.0 
1018.24549231 772.132 -1483.47170141 173.549918515 67.2059343811 -173.887071319 -1.98805 -0.0180885 0.0516099 -1.98805 -0.0213359 0.0503542 -1.98807 -0.0329759 0.0436275 -1.98807 -0.0256719 0.0482879 -9.17181 -0.582919 -8.53407 -8.96506 4.8006 -8.52749 -0.0 0.0 -0.0 1.38581 23.5952 4.62085 -10.4545 -19.5617 68.0404 0.176523 -4.99762 0.00770352 -15.3396 -0.785418 1.79141 1.307 29.6511 18.8409 -0.0 0.0 -0.0 11.0635 0.895226 -21.9271 23.6468 13.3624 -59.9306 1.75495 40.9984 -0.656166 19.3949 -0.27087 2.45091 0.850232 -4.3343 -7.43509 0.0 0.0 0.0 37.138 -16.5215 0.732161 -48.1036 -1.06105 7.09299 -7.87934 23.2416 1.21011 37.0349 -0.0 -0.0 -0.0 0.0 -0.0 6.58265 5.31839 -6.2509 -26.6022 -0.159141 -4.04275 37.4364 -6.69143 4.63026 11.3953 -0.0 -0.0 0.0 0.0 0.0 
